<?xml version="1.0" ?><!DOCTYPE svg PUBLIC '-//W3C//DTD SVG 1.1//EN'  'http://www.w3.org/Graphics/SVG/1.1/DTD/svg11.dtd'><svg enable-background="new 0 0 128 128" id="Слой_1" version="1.1" viewBox="0 0 128 128" xml:space="preserve" xmlns="http://www.w3.org/2000/svg" xmlns:xlink="http://www.w3.org/1999/xlink"><g><path d="M81.2,124H39.1c-5.1,0-9.4-3.8-9.9-8.9l-9-81.1h80l-9,81.1C90.6,120.2,86.3,124,81.2,124z" fill="#46B19B"/></g><g opacity="0.1"><g><path d="M39.2,115.1l-9-81.1h-10l9,81.1c0.6,5.1,4.8,8.9,9.9,8.9h10C44,124,39.7,120.2,39.2,115.1z" fill="#5C4862"/></g></g><g><rect fill="#F4F1E7" height="15" width="90" x="15.2" y="19"/></g><g opacity="0.1"><g><rect fill="#5C4862" height="15" width="10" x="15.2" y="19"/></g></g><g><polygon fill="#F4F1E7" points="89.5,4 30.8,4 25.2,19 95.2,19  "/></g><g opacity="0.1"><g><polygon fill="#5C4862" points="30.8,4 25.2,19 35.2,19 40.8,4   "/></g></g><g><g><g><polygon fill="#FECA5F" points="22.6,92 97.7,92 101.6,57 18.7,57    "/></g></g></g><g><polygon fill="#5C4862" points="97.7,92 101.6,57 100.1,57 96.2,92  "/><polygon fill="#5C4862" points="18.7,57 22.6,92 24.1,92 20.2,57  "/></g><g opacity="0.1"><g><polygon fill="#5C4862" points="18.7,57 22.6,92 32.6,92 28.7,57   "/></g></g><path d="M105.2,16.5h-8.3l-5-13.4c-0.4-1-1.3-1.6-2.3-1.6H30.8c-1,0-2,0.6-2.3,1.6l-5,13.4h-8.3  c-1.4,0-2.5,1.1-2.5,2.5v15c0,1.4,1.1,2.5,2.5,2.5h2.8l2,18h-1.2c-0.7,0-1.4,0.3-1.9,0.8c-0.5,0.5-0.7,1.2-0.6,1.9l3.9,35  c0.1,1.3,1.2,2.2,2.5,2.2h1.8l2.3,20.9c0.7,6.3,6,11.1,12.4,11.1h42.1c6.4,0,11.7-4.8,12.4-11.1L96,94.5h1.8c1.3,0,2.3-1,2.5-2.2  l3.9-35c0.1-0.7-0.1-1.4-0.6-1.9c-0.5-0.5-1.2-0.8-1.9-0.8h-1.2l2-18h2.8c1.4,0,2.5-1.1,2.5-2.5V19  C107.7,17.6,106.5,16.5,105.2,16.5z M32.5,6.5h55.3l3.8,10H28.8L32.5,6.5z M88.7,114.8c-0.4,3.8-3.6,6.7-7.5,6.7H39.1  c-3.8,0-7-2.9-7.5-6.7l-2.3-20.3h61.5L88.7,114.8z M95.5,89.5H24.8l-3.3-30h77.3L95.5,89.5z M95.4,54.5H25l-2-18h74.4L95.4,54.5z   M102.7,31.5h-2.5h-80h-2.5v-10h7.5h70h7.5V31.5z" fill="#5C4862"/><g><circle cx="60.5" cy="74.5" fill="#F4F1E7" r="10"/></g><g><path d="M60.5,87C53.6,87,48,81.4,48,74.5S53.6,62,60.5,62S73,67.6,73,74.5S67.4,87,60.5,87z M60.5,67   c-4.1,0-7.5,3.4-7.5,7.5s3.4,7.5,7.5,7.5s7.5-3.4,7.5-7.5S64.6,67,60.5,67z" fill="#5C4862"/></g></svg>